
<svg width="24" height="20" viewBox="0 0 24 20" xmlns="http://www.w3.org/2000/svg"><title>wechat</title><g fill="none" fill-rule="evenodd"><path d="M-1069-55H371v250h-1440z"/><path d="M11.53 8.856l.048-.042.046-.042a4.15 4.15 0 0 1 .05-.042l.048-.042.05-.042.053-.042.053-.042.054-.042.056-.042a5.105 5.105 0 0 1 .116-.084l.06-.042.062-.042.064-.042a5.49 5.49 0 0 1 .133-.084l.07-.042a5.19 5.19 0 0 1 .3-.168 7.655 7.655 0 0 1 .167-.084l.09-.042.09-.042a4.98 4.98 0 0 1 .414-.168 7.187 7.187 0 0 1 .682-.21 6.223 6.223 0 0 1 .377-.084 6.915 6.915 0 0 1 .555-.084c.26-.03.528-.045.8-.046h.038a6.768 6.768 0 0 1 3.393.928 4.88 4.88 0 0 1 .13.084l.06.042a4.31 4.31 0 0 1 .12.084l.06.042a7.937 7.937 0 0 1 .11.084l.05.042.05.042.05.042.05.042.05.042.05.042.05.042.04.042.05.042.04.042.04.042.04.042.04.042.04.042.04.042c.01.014.03.028.04.042l.04.042.04.042.04.042.03.042a4.408 4.408 0 0 1 .08.084l.03.042a.26.26 0 0 0 .04.042l.03.042.03.042.03.042.03.042.03.042.03.042.03.042.03.042.03.042.03.042.03.042.03.042.02.042.03.042.03.042a3.57 3.57 0 0 1 .05.084l.02.042.02.042.02.042.02.042.03.042.02.042.02.042a.4.4 0 0 0 .02.042.37.37 0 0 0 .02.042l.02.042.02.042.01.042.01.042.02.042.02.042.02.042.01.042.01.042.01.042.01.042c0 .014.01.028.01.042l.01.042a.32.32 0 0 1 .01.042c0 .014.01.028.01.042l.01.042a5.3 5.3 0 0 1 .02.084.32.32 0 0 1 .01.042l.01.042.01.042.01.042.01.042.01.042.01.042v.042l.01.042.01.042v.084l.01.042v.126a1.753 1.753 0 0 1 0 .084v.336a3.322 3.322 0 0 1 0 .084v.042a23.605 23.605 0 0 0-.02.126v.084l-.01.042a1.72 1.72 0 0 1-.01.042c0 .014-.01.028-.01.042l-.01.042a3.47 3.47 0 0 1-.03.126l-.01.042-.01.042a4.054 4.054 0 0 1-.01.042l-.02.042-.01.042a5.522 5.522 0 0 1-.04.126.22.22 0 0 1-.01.042l-.01.042-.01.042-.02.042-.02.042-.02.042-.02.042-.01.042-.02.042-.02.042a.4.4 0 0 1-.02.042 10.296 10.296 0 0 1-.06.126l-.02.042-.02.042-.03.042a5.483 5.483 0 0 1-.1.168c-.01.014-.01.028-.02.042a3.543 3.543 0 0 1-.05.084l-.03.042-.03.042-.03.042a3.18 3.18 0 0 1-.06.084l-.03.042-.03.042-.03.042-.03.042-.04.042-.03.042a7.24 7.24 0 0 1-.07.084l-.03.042-.03.042a.626.626 0 0 1-.03.042 137.54 137.54 0 0 1-.11.126l-.04.042-.04.042-.04.042-.04.042-.04.042a5.013 5.013 0 0 1-.09.084l-.04.042-.05.042-.05.042-.05.042-.05.042-.05.042-.05.042-.05.042a11.275 11.275 0 0 1-.15.126l-.05.042a11.815 11.815 0 0 1-.11.084l-.05.042a11.75 11.75 0 0 1-.11.084l-.06.042-.02.015.01.027.01.042.01.042.01.042.01.042.02.042.01.042.01.042.01.042.01.042.01.042.02.042.01.042.02.042.01.042.01.042.01.042.01.042.02.042.02.042.01.042.01.042.01.042.01.042.01.042.02.042.01.042.02.042.01.042.01.042.01.042.02.042.02.042.02.042.01.042.01.042.01.042.01.042.02.042.01.042.01.042.01.03-.06-.03-.08-.042-.08-.042-.08-.042-.08-.042-.08-.042-.08-.042-.08-.042-.08-.042-.08-.042-.08-.042-.08-.042-.08-.042-.08-.042-.08-.042-.08-.042-.08-.042-.07-.042-.08-.042-.08-.042-.07-.042-.08-.042-.08-.042-.08-.042-.08-.042-.01-.007-.03.007-.17.042-.17.042a17.925 17.925 0 0 1-.57.126 9.364 9.364 0 0 1-.5.084 5.59 5.59 0 0 1-.68.048 7.34 7.34 0 0 1-1.76-.216 6.283 6.283 0 0 1-.79-.252 6.784 6.784 0 0 1-.21-.084L13 16.71a5.788 5.788 0 0 1-.09-.042l-.09-.042a5.82 5.82 0 0 1-.17-.084l-.08-.042a6.86 6.86 0 0 1-.15-.084l-.07-.042-.07-.042-.07-.042a4.484 4.484 0 0 1-.19-.126l-.06-.042-.06-.042-.05-.042-.06-.042-.05-.042-.05-.042-.056-.042-.05-.042-.05-.042-.05-.042a3.792 3.792 0 0 1-.05-.042l-.04-.042-.04-.042-.04-.042-.04-.042a5.167 5.167 0 0 1-.05-.042l-.04-.042-.04-.042-.04-.042-.04-.042-.04-.042-.04-.042a2.898 2.898 0 0 1-.1-.126c-.01-.014-.03-.028-.04-.042l-.03-.042-.03-.042a.26.26 0 0 0-.03-.042 3.896 3.896 0 0 1-.06-.084l-.03-.042a3.143 3.143 0 0 1-.03-.042l-.03-.042-.03-.042-.03-.042-.03-.042-.03-.042-.02-.042a5.713 5.713 0 0 1-.02-.042l-.03-.042-.02-.042-.02-.042-.03-.042-.02-.042a.3.3 0 0 1-.02-.042l-.03-.042-.02-.042-.02-.042-.02-.042-.02-.042-.02-.042-.02-.042a.36.36 0 0 0-.02-.042 4.565 4.565 0 0 1-.01-.042l-.015-.042a4.243 4.243 0 0 1-.01-.042l-.01-.042-.02-.042-.02-.042-.02-.042-.02-.042-.02-.042-.01-.042-.01-.042a.345.345 0 0 1-.01-.042v-.042l-.01-.042-.01-.042-.01-.042-.01-.042-.01-.042-.01-.042-.01-.042-.01-.042v-.042a1.86 1.86 0 0 1-.01-.042l-.01-.042-.01-.042-.01-.042c0-.014 0-.028-.01-.042l-.01-.042-.01-.042v-.126l-.01-.042c0-.014 0-.028-.01-.042v-.546l.01-.042v-.084l.01-.042v-.084l.01-.042.01-.042.01-.042v-.042l.01-.042a3.47 3.47 0 0 1 .01-.042l.01-.042.01-.042a.213.213 0 0 1 .01-.042l.02-.042.01-.042.01-.042.01-.042.01-.042.01-.042.02-.042c0-.014.01-.028.01-.042a.345.345 0 0 0 .01-.042l.01-.042.01-.042.02-.042.01-.042.02-.042.01-.042c.01-.014.01-.028.02-.042l.02-.042.02-.042.02-.042.02-.042.02-.042.02-.042.02-.042a.16.16 0 0 0 .02-.042.3.3 0 0 0 .03-.042l.02-.042.02-.042a3.51 3.51 0 0 1 .02-.042c.01-.014.02-.028.02-.042l.03-.042.03-.042.03-.042a.464.464 0 0 1 .02-.042l.02-.042.03-.042.03-.042.03-.042.03-.042.03-.042.03-.042.03-.042.03-.042.04-.042.03-.042.03-.042.04-.042.04-.042.03-.042.03-.042.04-.042.04-.042.04-.042.04-.042.04-.042.04-.042a3.424 3.424 0 0 1 .09-.084l.04-.042m.2-2.163c.53 0 .88-.348.88-.87 0-.523-.35-.867-.88-.867s-1.06.344-1.06.867c0 .522.53.87 1.06.87M6.7 4.956c-.53 0-1.07.344-1.07.867 0 .522.535.87 1.065.87s.88-.348.88-.87c0-.523-.36-.867-.89-.867M17.93 10c-.35 0-.704.347-.704.694 0 .352.353.695.703.695.53 0 .88-.35.88-.7s-.36-.7-.89-.7m-3.9 0c-.36 0-.71.34-.71.69 0 .35.35.69.7.69.53 0 .89-.35.89-.7s-.35-.7-.89-.7m-5.9-7.93c.3-.03.61-.05.92-.05h.07a8.684 8.684 0 0 1 2.22.3 8.886 8.886 0 0 1 .89.29 9.92 9.92 0 0 1 .35.15l.11.05a8.48 8.48 0 0 1 .2.1 8.26 8.26 0 0 1 .69.39c.03.02.05.03.08.05l.08.05.07.05a6.484 6.484 0 0 1 .33.25l.06.05.06.05.06.05.05.05a5.55 5.55 0 0 1 .22.2l.05.05a4.717 4.717 0 0 1 .19.2 6.52 6.52 0 0 1 .13.15l.04.05.04.05a.487.487 0 0 1 .04.05.32.32 0 0 1 .05.05l.04.05.04.05.04.05.04.05.03.05.04.05.03.05c.01.02.02.03.03.05l.03.05.03.05.03.05.03.05.03.05.03.04.03.05a.49.49 0 0 1 .03.05l.03.05.03.05a4.562 4.562 0 0 1 .05.1l.02.05.02.05c.01.01.01.03.02.05l.02.05a.18.18 0 0 1 .02.05l.02.05a.578.578 0 0 1 .02.05.21.21 0 0 1 .02.05l.02.05.02.05.01.05.02.04.02.05.02.05.01.05.02.05.01.05a.43.43 0 0 1 .01.05l.01.04.02.05.01.05c0 .02.01.03.01.05l.01.05.01.05.01.03a7.224 7.224 0 0 0-.68-.04 6.747 6.747 0 0 0-1.83.25 6.732 6.732 0 0 0-.81.29 6.545 6.545 0 0 0-.59.3 5.327 5.327 0 0 0-.09.05l-.08.05a9.04 9.04 0 0 0-.16.1l-.07.05a.355.355 0 0 0-.07.05 6.6 6.6 0 0 0-.2.15l-.07.05-.06.05a5.614 5.614 0 0 0-.34.3l-.05.05a.786.786 0 0 0-.05.05l-.05.05-.05.05-.05.05-.04.05c-.01.01-.03.03-.04.05l-.05.05-.04.05a3.87 3.87 0 0 0-.12.15l-.04.05-.04.05-.04.05-.03.05-.04.05a.485.485 0 0 0-.04.05l-.04.05a3.21 3.21 0 0 0-.1.15l-.03.05-.03.05a.403.403 0 0 0-.03.05l-.03.04a15.31 15.31 0 0 0-.06.1.33.33 0 0 0-.02.05.233.233 0 0 0-.02.05l-.02.05-.02.05a6.523 6.523 0 0 0-.03.04l-.03.05-.02.05a.15.15 0 0 0-.02.05 2.69 2.69 0 0 0-.04.1.578.578 0 0 0-.02.05l-.02.04-.02.05a4.303 4.303 0 0 0-.02.05l-.02.05a.574.574 0 0 1-.02.05l-.01.05-.02.05-.01.05-.02.04-.01.05a.598.598 0 0 0 0 .06l-.01.04-.01.05-.01.05a2.408 2.408 0 0 0-.02.05l-.01.05a.277.277 0 0 0-.01.05l-.01.05-.01.05a4.31 4.31 0 0 0-.01.05l-.01.05-.01.05a5.295 5.295 0 0 0-.01.05v.05a.104.104 0 0 0-.01.05 4.373 4.373 0 0 0-.03.3l-.01.05v.19c-.01.01-.01.03-.01.05v.15a4.786 4.786 0 0 0 .01.2v.05a5.125 5.125 0 0 0 .01.15l.01.05v.05l.01.05v.04a4.594 4.594 0 0 0 .01.1l.01.05.01.05.01.05.01.05.01.05.01.05.01.05.01.04.02.05.01.05a5.345 5.345 0 0 0 .02.1l.02.05.01.03a9.694 9.694 0 0 1-.66.03 6.676 6.676 0 0 1-.87-.06 9.54 9.54 0 0 1-.63-.1 19.492 19.492 0 0 1-.5-.1l-.25-.05-.23-.04-.1.04-.1.05-.1.05-.1.05-.1.04-.1.05-.1.05-.1.05-.1.05-.1.05-.1.05-.1.05-.1.05-.1.05-.1.05-.1.05-.1.05-.1.05-.1.05-.1.05-.1.05-.1.05-.1.05-.1.05-.07.03.01-.04.02-.05.01-.05.02-.05.02-.05.02-.05.02-.05.02-.05.02-.05.02-.05.01-.05.02-.05.02-.05.01-.05.02-.05.02-.05.01-.05.02-.05.01-.05.02-.05.02-.05.02-.05.02-.05.02-.05.01-.05.02-.05.01-.05.02-.05.02-.05.01-.05.01-.05.01-.05.02-.05.02-.05.02-.05.01-.05.02-.05.02-.05.02-.05.02-.05.01-.05.01-.05.01-.03-.03-.02-.07-.05-.07-.05a7.13 7.13 0 0 1-.07-.05l-.07-.05a9.695 9.695 0 0 1-.07-.05l-.07-.05-.07-.05a10.243 10.243 0 0 1-.3-.25l-.06-.06a8.085 8.085 0 0 1-.27-.25l-.05-.05a4.565 4.565 0 0 1-.1-.1l-.04-.05-.05-.05a13.745 13.745 0 0 1-.18-.2 10.82 10.82 0 0 1-.04-.05 3.5 3.5 0 0 1-.16-.2 10.218 10.218 0 0 1-.08-.1H3l-.036-.05-.033-.05-.03-.05-.03-.05-.03-.05-.03-.05-.03-.05-.03-.05-.03-.05-.03-.05-.02-.05a.403.403 0 0 1-.02-.05 4.59 4.59 0 0 1-.17-.35.313.313 0 0 1-.02-.05l-.02-.05a2.59 2.59 0 0 1-.06-.15 6.162 6.162 0 0 1-.05-.15 2.476 2.476 0 0 1-.03-.1 5.838 5.838 0 0 1-.04-.15c-.01-.02-.01-.04-.01-.05a.378.378 0 0 1-.01-.05.376.376 0 0 1-.02-.05.454.454 0 0 0-.01-.05L2.2 9a5.5 5.5 0 0 1-.02-.1l-.01-.05a4.485 4.485 0 0 1-.01-.05l-.01-.05-.01-.05a4.53 4.53 0 0 1-.02-.145l-.01-.05v-.09L2.1 8.4a2.387 2.387 0 0 1-.005-.05l-.01-.05-.003-.05-.003-.05c0-.01 0-.03-.01-.05v-.1C2 8.02 2 8 2 7.99v-.15c0-.017 0-.034.002-.05v-.05a4.826 4.826 0 0 1 .004-.1c.003-.016.003-.032.004-.05 0-.015.003-.032.004-.048 0-.017.002-.033.004-.05 0-.016.002-.033.004-.05 0-.016.003-.032.005-.05l.005-.048.006-.05.006-.05.007-.048.01-.05.01-.05.01-.05.01-.048a4.288 4.288 0 0 1 .02-.1l.01-.048.01-.05.01-.05.02-.05.01-.048.02-.05a.407.407 0 0 0 .02-.05l.02-.05.02-.048.01-.05.02-.05a5.59 5.59 0 0 1 .04-.098l.02-.05.02-.05a.175.175 0 0 1 .02-.048.334.334 0 0 1 .02-.05l.02-.05a.578.578 0 0 0 .02-.05.434.434 0 0 0 .02-.048l.03-.05.02-.05.03-.048.03-.05.02-.05.03-.048a.57.57 0 0 1 .02-.05l.03-.05a.49.49 0 0 0 .03-.05l.03-.048.03-.05.03-.05.03-.05.03-.048a4.89 4.89 0 0 1 .07-.1l.03-.048.04-.05.03-.05.03-.05.01-.048.04-.05.04-.05a.397.397 0 0 1 .04-.05 3.62 3.62 0 0 1 .08-.097l.04-.05a3.79 3.79 0 0 1 .04-.05l.04-.05.04-.048a4.116 4.116 0 0 1 .13-.147.556.556 0 0 1 .04-.05l.05-.05.05-.05.05-.05.05-.05.06-.05.05-.05.06-.05c.02-.02.04-.03.06-.05.02-.02.04-.03.06-.05l.06-.05a5.9 5.9 0 0 1 .19-.15l.07-.05c.02-.02.04-.03.07-.05a6.514 6.514 0 0 1 .14-.1l.07-.05.07-.05.08-.05.08-.05a12.856 12.856 0 0 1 .25-.15.637.637 0 0 0 .09-.05 6.03 6.03 0 0 1 .18-.1l.09-.05.1-.05.1-.05.11-.05a7.006 7.006 0 0 1 .63-.25 7.438 7.438 0 0 1 .88-.25 7.89 7.89 0 0 1 .89-.15" fill="#000"/></g></svg>